<svg class="generator__canvas" viewBox="0 0 200 200" xmlns="http://www.w3.org/2000/svg" version="1.1" xmlns:xlink="http://www.w3.org/1999/xlink" xmlns:svgjs="http://svgjs.dev/svgjs"><circle r="20" cx="20" cy="20" fill="#ffffff" transform="matrix(0.21898230856992387,0,0,0.21898230856992387,15.620353828601523,15.620353828601523)"></circle><circle r="20" cx="20" cy="60" fill="#ffffff" transform="matrix(0.2305110736780191,0,0,0.2305110736780191,15.389778526439617,46.169335579318854)"></circle><circle r="20" cx="20" cy="100" fill="#ffffff" transform="matrix(0.25430498859669226,0,0,0.25430498859669226,14.913900228066154,74.56950114033077)"></circle><circle r="20" cx="20" cy="140" fill="#ffffff" transform="matrix(0.29464852198823566,0,0,0.29464852198823566,14.107029560235286,98.74920692164702)"></circle><circle r="20" cx="20" cy="180" fill="#ffffff" transform="matrix(0.35071098187779187,0,0,0.35071098187779187,12.985780362444164,116.87202326199747)"></circle><circle r="20" cx="60" cy="20" fill="#ffffff" transform="matrix(0.1812501164373696,0,0,0.1812501164373696,49.12499301375782,16.374997671252608)"></circle><circle r="20" cx="60" cy="60" fill="#ffffff" transform="matrix(0.18738967313091484,0,0,0.18738967313091484,48.75661961214511,48.75661961214511)"></circle><circle r="20" cx="60" cy="100" fill="#ffffff" transform="matrix(0.20448206526207283,0,0,0.20448206526207283,47.73107608427563,79.55179347379271)"></circle><circle r="20" cx="60" cy="140" fill="#ffffff" transform="matrix(0.23770388677191523,0,0,0.23770388677191523,45.73776679368508,106.72145585193186)"></circle><circle r="20" cx="60" cy="180" fill="#ffffff" transform="matrix(0.2879936166351279,0,0,0.2879936166351279,42.72038300189233,128.16114900567698)"></circle><circle r="20" cx="100" cy="20" fill="#ffffff" transform="matrix(0.15928153520833166,0,0,0.15928153520833166,84.07184647916684,16.814369295833366)"></circle><circle r="20" cx="100" cy="60" fill="#ffffff" transform="matrix(0.15925827612090104,0,0,0.15925827612090104,84.0741723879099,50.44450343274594)"></circle><circle r="20" cx="100" cy="100" fill="#ffffff" transform="matrix(0.16894377257875157,0,0,0.16894377257875157,83.10562274212484,83.10562274212484)"></circle><circle r="20" cx="100" cy="140" fill="#ffffff" transform="matrix(0.1940057606029048,0,0,0.1940057606029048,80.59942393970952,112.83919351559332)"></circle><circle r="20" cx="100" cy="180" fill="#ffffff" transform="matrix(0.2367407817325147,0,0,0.2367407817325147,76.32592182674853,137.38665928814737)"></circle><circle r="20" cx="140" cy="20" fill="#ffffff" transform="matrix(0.15779625414425702,0,0,0.15779625414425702,117.90852441980402,16.84407491711486)"></circle><circle r="20" cx="140" cy="60" fill="#ffffff" transform="matrix(0.15149875066452698,0,0,0.15149875066452698,118.79017490696623,50.910074960128384)"></circle><circle r="20" cx="140" cy="100" fill="#ffffff" transform="matrix(0.15339087924328507,0,0,0.15339087924328507,118.52527690594009,84.66091207567149)"></circle><circle r="20" cx="140" cy="140" fill="#ffffff" transform="matrix(0.16951766790464065,0,0,0.16951766790464065,116.26752649335032,116.26752649335032)"></circle><circle r="20" cx="140" cy="180" fill="#ffffff" transform="matrix(0.20325370492753506,0,0,0.20325370492753506,111.54448131014509,143.41433311304368)"></circle><circle r="20" cx="180" cy="20" fill="#ffffff" transform="matrix(0.182013212113109,0,0,0.182013212113109,147.23762181964037,16.35973575773782)"></circle><circle r="20" cx="180" cy="60" fill="#ffffff" transform="matrix(0.16981858823189344,0,0,0.16981858823189344,149.43265411825917,49.8108847060864)"></circle><circle r="20" cx="180" cy="100" fill="#ffffff" transform="matrix(0.16369832685054697,0,0,0.16369832685054697,150.53430116690154,83.63016731494531)"></circle><circle r="20" cx="180" cy="140" fill="#ffffff" transform="matrix(0.17008888820729706,0,0,0.17008888820729706,149.38400012268653,116.18755565097841)"></circle><circle r="20" cx="180" cy="180" fill="#ffffff" transform="matrix(0.19328375646866586,0,0,0.19328375646866586,145.20892383564015,145.20892383564015)"></circle></svg>